<svg xmlns:xlink="http://www.w3.org/1999/xlink" xmlns="http://www.w3.org/2000/svg" fill="currentColor" viewBox="0 0 18 18" class="size-4.5 text-[#00457B] dark:text-[#60a5fa]" width="18"  height="18" ><path d="M17.223 9.508a.7.7 0 0 0-.647-.118l.004-.002c-.651.205-1.422.37-2.215.46l-.059.006c-.064-.742-.12-1.462-.17-2.119.658-.261 1.215-.46 1.237-.466-.911-3.233-3.834-5.563-7.301-5.563a7.571 7.571 0 0 0-5.364 12.916c3.468 0 4.238 1.469 6.28 1.469 2.04 0 3.326-1.455 3.326-2.825a3.64 3.64 0 0 0-.657-1.933l.008.011h1.363c.097 1.354.305 2.608.618 3.82l-.032-.147a2.27 2.27 0 0 0 2.291 1.264h-.01.008q.405 0 .789-.074l-.026.004a.71.71 0 0 0 .565-.655v-.002l.268-5.453.001-.032a.7.7 0 0 0-.274-.56zm-1.179 1.49-.056 1.088c-.393.075-.877.138-1.368.174l-.045.002c0-.318-.078-.657-.113-1.002.62-.071 1.159-.163 1.688-.282zM9.313 14.41a1.066 1.066 0 1 1 0-2.133 1.066 1.066 0 0 1 0 2.133m2.034-4.528c.107-.464.367-.878.737-1.177l.005-.003q.319-.226.683-.373l.023-.008c0 .445.078.996.127 1.61a15 15 0 0 1-1.63-.053zm4.507 4.98c-.375 0-.813-.078-.918-.36a4.4 4.4 0 0 1-.189-.825l-.002-.023c.332 0 .706-.07 1.172-.134z" fill="#60A5FA"></path></svg>