<svg xmlns:xlink="http://www.w3.org/1999/xlink" xmlns="http://www.w3.org/2000/svg" fill="none" viewBox="0 0 18 18" class="size-4.5 text-[#16a34a]" width="20"  height="20" ><path fill="#16A34A" d="M9 1.888a8 8 0 0 1 8 8 8 8 0 0 1-14.277 4.96l.013.016A8 8 0 0 1 8.99 1.888zM8.99 3.22a6.667 6.667 0 0 0-4.753 11.334c.427.353 1.287.96 2.087.8 1.133-.227.133-1.86 1.34-2.407 1.206-.547 1.553.74 2.366.12s-.274-1.574.566-2.62c.707-.887 1.8-.214 2.314-.82s-.92-1.627-.42-2.567 1.4-.307 1.48-1.173c.034-.4-.433-.88-.827-1.206l.013.009A6.6 6.6 0 0 0 9 3.22zm-4.029 8.007a1 1 0 1 1-.118 1.993h-.006a1 1 0 0 1-.868-1.12v-.005a1 1 0 0 1 .992-.868m2.684-1.434a1 1 0 0 1 .226 1.974l-.108.018a1 1 0 0 1-1.069-.683l-.023-.082a1 1 0 0 1 .974-1.227M5.105 7.56a1 1 0 1 1-.952 1.304L4.13 8.78a1 1 0 0 1 .976-1.221m4.583-.005a1 1 0 0 1 .542 1.84l.004-.003a.987.987 0 0 1-1.383-.291l.001.004a1 1 0 0 1 .835-1.55M5.33 9.535H5.33l.003-.001zM7.495 5.19a1 1 0 0 1 .924.617c.05.121.076-.749.076.383 0 .348-.178.655-.453.837l.004-.003a1.007 1.007 0 0 1-1.39-.291l.002.004a1 1 0 0 1-.163-.547c0-1.132.026-.262.077-.383a1 1 0 0 1 .923-.617m3.346-.433a1 1 0 1 1-.605 1.797l-.002-.002a1 1 0 0 1-.191-1.399l.002-.002a1 1 0 0 1 .796-.394"></path></svg>