<svg xmlns:xlink="http://www.w3.org/1999/xlink" xmlns="http://www.w3.org/2000/svg" width="186" height="196" fill="none" viewBox="0 0 186 196" class="size-4.5 text-[#1E40AF] dark:text-[#60a5fa]"><g clip-path="url(#a)" fill="none"><path fill="color(display-p3 0.5008 0 0.7907)" d="M176.199 159.469c1.962 3.865 4.394 7.346 7.108 10.676 1.419 1.743 1.235 4.314-.487 5.759l-3.86 3.238-7.712 6.542-9.224 7.762-.167.141a4 4 0 0 1-5.44-.237l-4.325-4.384-5.166-4.187c-4.666-3.372-9.625-6.1-15.076-8.034-3.331-1.182-6.662-1.889-10.126-2.563l-6.344-1.231-4.761-1.571-3.847-1.702c-2.943-1.302-5.638-2.964-7.993-5.138l-4.344-3.996-5.294-5.902c-4.12-4.595-8.32-9.034-13.11-12.969-4.864-3.996-9.782-7.67-15.126-10.981-3.463-2.144-6.91-3.979-10.55-5.794-5.039-2.513-10.184-4.389-15.52-6.174-3.566-1.195-6.893-2.509-10.2-4.265-8.964-4.753-15.874-11.494-20.09-20.813C1.327 86.508-.272 78.78.038 70.898c.215-5.484.872-10.823 2.41-16.084 3.351-11.457 9.43-21.814 17.53-30.55C30.86 12.522 44.768 4.74 60.406 1.387l5.191-.9C75.156-.7 86.021.205 94.898 4.02c5.914 2.537 11.237 6.075 15.643 10.704l3.331 3.967 1.752 2.418c2.587 4.129 4.848 8.435 6.15 13.15l1.562 5.659c1.492 6.211 3.339 12.196 5.72 18.135 3.79 9.451 8.782 18.866 14.804 27.078l8.166 10.039 4.98 5.447c4.885 5.348 9.448 13.241 11.068 20.371.868 3.818 1.203 7.575 1.244 11.493.041 4.166.484 8.104 1.414 12.175 1.033 4.534 2.454 8.894 4.558 13.031l.905 1.781zM100.833 45.424l.607 2.463.087.351c.017.066-.215-.025-.277-.074-3.533-4.559-8.27-8.01-13.857-9.551-5.712-1.77-12.114-1.69-17.664.33-11.34 4.133-18.937 14.937-18.672 27.083.07 3.331.62 6.65 1.884 9.782 2.707 6.708 7.787 12.225 14.333 15.313 9.282 4.376 20.123 3.174 28.385-2.844 3.74-2.723 6.724-6.393 8.786-10.555 1.153-2.331 2.079-4.7 2.339-7.253l.5-4.922 4.575 10.484c2.79 5.774 5.823 11.304 9.349 16.664 2.744 4.178 5.505 8.183 8.629 12.064l8.96 10.282c3.319 3.807 4.902 8.903 4.687 13.912-.24 5.641-3.042 10.666-7.216 14.324-3.575 3.133-8.014 4.744-12.738 5.026-2.57.152-4.847-.372-7.203-1.269-3.534-1.343-6.307-3.439-8.749-6.274a152 152 0 0 0-11.469-11.907l-9.82-8.348c-4.182-3.29-8.402-6.278-12.96-9.051-5.365-3.265-10.775-6.261-16.494-8.877-5.774-2.645-11.614-4.712-17.602-6.799-4.15-1.446-8.105-2.905-12.064-4.736l-6.12-3.15-6.026-3.93v.294c2.31 6.179 5.095 10.67 10.278 14.824 2.228 1.786 4.455 3.41 7.158 4.398l6.927 2.529c23.615 8.051 45.139 22.412 61.182 41.535l2.063 2.017 2.76 2.447c2.583 2.289 7.233 4.36 10.642 5.128 6.162 1.393 12.444.939 18.239-1.5 2.872-1.211 5.343-2.769 7.786-4.682 1.926-1.509 3.488-3.232 5.001-5.179 3.451-4.447 5.567-9.662 6.021-15.291.265-3.261.083-6.365-.731-9.514-1.406-5.447-4.084-10.212-7.948-14.283-3.261-3.435-6.253-6.923-9.117-10.7l-7.571-10.952-5.662-10.088c-3.059-6.088-5.852-12.155-7.865-18.673l-2.575-8.331-2.112-7.998c-2.632-9.972-8.505-18.357-18.052-22.87 2.203 4.149 4.009 8.195 5.228 12.6l2.17 7.832 1.984 7.927z" style="fill-opacity: 1;"></path></g><defs><clipPath id="a"><path fill="#fff" d="M0 0h185.961v196H0z" style="fill: rgb(255, 255, 255); fill-opacity: 1;"></path></clipPath></defs></svg>