<svg xmlns:xlink="http://www.w3.org/1999/xlink" xmlns="http://www.w3.org/2000/svg" fill="none" viewBox="0 0 18 18" class="size-4.5 text-[#B90E3B] dark:text-[#ef4444]" width="18"  height="18" ><path fill="#EF4444" d="M1.086 8.893c.523.19 1.03.415 1.45.64l-.326.727-.024.061a.67.67 0 0 0 .356.82l-.003-.002a.67.67 0 0 0 .638-.046.67.67 0 0 0 .246-.286l.273-.606.055.033q.921.598 1.739 1.333l-.967.96a.667.667 0 0 0 .47 1.14h.008a.67.67 0 0 0 .45-.173l.98-.933.324.364q.506.592.941 1.236l-.666.287h-.004a.666.666 0 0 0 .265 1.28l.02-.001a.65.65 0 0 0 .272-.06l.786-.387-.03-.061c.29.542.54 1.11.764 1.781h-.107a8 8 0 0 1-7.993-8v-.133zm6.492-7.676c.205.67.467 1.316.751 1.863l-.846.386-.004.002a.667.667 0 0 0 .28 1.272h.017a.65.65 0 0 0 .273-.06l.947-.427.037.063a16 16 0 0 0 1.59 2.07l-.428.434a.667.667 0 0 0 0 .94.67.67 0 0 0 .47.194h.004c.175-.001.342-.07.467-.194l.433-.434a16 16 0 0 0 2 1.547l-.407.913.002-.003a.666.666 0 0 0 .332.884l-.004-.002q.132.061.277.062c.269 0 .5-.16.606-.394l.352-.758c.643.335 1.32.619 2.108.866l-.008.05c-.608 3.221-3.148 5.76-6.42 6.376l-.022-.087a11.7 11.7 0 0 0-.844-2.046l.787-.354h.004a.666.666 0 1 0-.524-1.18l-.906.407-.034-.056c-.447-.69-.953-1.341-1.513-1.944l.427-.434H7.78a.667.667 0 0 0-.939-.94l-.434.426A16 16 0 0 0 4.248 9l.427-.967-.001.005a.667.667 0 0 0-1.213-.551l-.385.844c-.594-.3-1.22-.553-1.947-.771l.007-.05c.608-3.221 3.148-5.76 6.42-6.376zm7.15 8.357v.002l-.07-.036zM8.996 1.001a8 8 0 0 1 8 8v.106l-.08-.024a11 11 0 0 1-1.613-.71l.358-.781a.69.69 0 0 0-.625-.98.69.69 0 0 0-.627.402l-.286.666-.046-.029a13 13 0 0 1-1.554-1.237l.986-.967a.67.67 0 1 0-.947-.946l-.96.965a14 14 0 0 1-1.386-1.773l.606-.273.005-.001a.666.666 0 1 0-.551-1.212l-.727.326.031.065A12 12 0 0 1 8.882 1zM3.141 8.365l-.066-.032v-.002z"></path></svg>