<svg xmlns:xlink="http://www.w3.org/1999/xlink" xmlns="http://www.w3.org/2000/svg" fill="none" viewBox="0 0 18 18" class="size-4.5 text-[#16a34a]" width="18"  height="18" ><path fill="#16A34A" d="M2.06 10.267c1.307-1.307 3.647-1.113 5.187.426 1.54 1.54 1.753 3.82.42 5.154a3.03 3.03 0 0 1-1.82.82 8 8 0 0 1-4.527-5.1c.129-.49.384-.94.74-1.3m8.727.4c1.547-1.514 3.846-1.707 5.153-.447a2.9 2.9 0 0 1 .734 1.333 8 8 0 0 1-4.527 5.114 3 3 0 0 1-1.787-.847c-1.307-1.306-1.113-3.613.427-5.153m2.426-8.127A8 8 0 0 1 17 9.333q0 .57-.087 1.134a13 13 0 0 1-2.953-3.8 6.05 6.05 0 0 1-.746-4.127m-8.44.007a6 6 0 0 1-.747 4.12 13 13 0 0 1-2.94 3.76A7.4 7.4 0 0 1 1 9.333a8 8 0 0 1 3.773-6.786M9 3.333c2.18 0 3.94 1.494 3.94 3.334S11.18 10 9 10 5.06 8.507 5.06 6.667 6.82 3.333 9 3.333m0-2c1.129 0 2.245.241 3.273.707-.22.14-1.146.627-3.273.627-2.126 0-3.053-.487-3.273-.627A7.9 7.9 0 0 1 9 1.333"></path></svg>