<svg xmlns:xlink="http://www.w3.org/1999/xlink" xmlns="http://www.w3.org/2000/svg" fill="none" viewBox="0 0 24 24" class="size-4.5 text-[#E10600] dark:text-[#FF1E00]" width="24"  height="24" ><path fill="#FF1E00" d="M16.754 9.167a7.06 7.06 0 0 1-.991 4.758l5.233 4.575-2.5 2.5-4.575-5.25a7.04 7.04 0 0 1-3.758 1.083q-.504 0-1-.075z"></path><path fill="#FF1E00" fill-rule="evenodd" d="M2.881 2.885C5.706.05 10.706.46 14.04 3.793a9.5 9.5 0 0 1 2.308 3.725l-8.842 8.808a9.44 9.44 0 0 1-3.717-2.284C.456 10.71.056 5.718 2.881 2.885m3.24 3.307a2.502 2.502 0 0 0-3.409 1.821 2.5 2.5 0 1 0 3.41-1.821" clip-rule="evenodd"></path></svg>