<svg xmlns:xlink="http://www.w3.org/1999/xlink" xmlns="http://www.w3.org/2000/svg" fill="none" viewBox="0 0 18 18" class="size-4.5 text-red-500" width="18"  height="18" ><path fill="#CB3131" d="M14.331 15.887v.668a1.334 1.334 0 0 1-1.333 1.333H6.003a1.334 1.334 0 0 1-1.334-1.333v-.668zM11.074 1.89a2 2 0 0 1 1.37.609h1.261a2 2 0 0 1 1.96 2v2.054q.01.137 0 .274v3.727l-1.333 4H4.664l-2.334-4V5.885a.72.72 0 0 1 .76-.667h.573v-.72a2 2 0 0 1 2-2h1.24a2 2 0 0 1 2.761-.093 2 2 0 0 1 1.41-.516M3.663 6.552v1.334H6.33a1.33 1.33 0 0 0 1.027-.48c.199-.24.308-.542.307-.853zm7.335-3.334a.667.667 0 0 0-.667.667V7.22a.667.667 0 0 0 1.334 0V3.885a.67.67 0 0 0-.667-.667m2 .614v3.387a2 2 0 0 1-.153.667h.153a1.334 1.334 0 0 0 1.334-1.334V4.498a.667.667 0 0 0-.667-.666zm-7.295 0a.667.667 0 0 0-.667.666l-.04.72H6.33V3.832zm2.628-.614a.667.667 0 0 0-.667.667v1.333h1.333V3.885a.667.667 0 0 0-.666-.667"></path></svg>