<svg xmlns:xlink="http://www.w3.org/1999/xlink" xmlns="http://www.w3.org/2000/svg" fill="none" viewBox="0 0 18 18" class="size-5 text-[#B90E3B] dark:text-[#ef4444]" width="18"  height="18" ><path fill="#EF4444" d="M7.578 1.217c.205.67.467 1.316.75 1.863l-.845.386-.004.002a.667.667 0 0 0 .28 1.272h.017a.65.65 0 0 0 .273-.06l.947-.427.037.063a16 16 0 0 0 1.589 2.07l-.427.434a.667.667 0 0 0 .47 1.134h.004c.175-.001.342-.07.466-.194l.433-.434a16 16 0 0 0 2.001 1.547l-.407.913.002-.003a.665.665 0 0 0 .332.884l-.004-.002q.131.061.277.062c.268 0 .5-.16.606-.394l.352-.757c.643.334 1.32.617 2.108.865l-.008.05c-.608 3.221-3.148 5.76-6.42 6.376l-.022-.087a11.7 11.7 0 0 0-.844-2.046l.787-.354h.004a.666.666 0 1 0-.524-1.18l-.906.407-.034-.056c-.447-.69-.954-1.341-1.513-1.944l.426-.434a.667.667 0 0 0-.94-.94l-.433.426A16 16 0 0 0 4.248 9l.427-.967-.002.005a.667.667 0 0 0-1.212-.551l-.385.844c-.594-.3-1.22-.553-1.948-.77l.008-.05c.608-3.222 3.148-5.762 6.42-6.377zm7.15 8.357v.002l-.07-.035zM3.14 8.364l-.066-.03V8.33z"></path><path fill="#EF4444" d="M1.146 8.893c.523.19 1.029.415 1.45.64l-.327.727-.024.061a.67.67 0 0 0 .357.82l-.004-.002a.666.666 0 0 0 .884-.332l.274-.606.055.033q.92.598 1.738 1.333l-.966.96a.668.668 0 0 0 .47 1.14h.008a.67.67 0 0 0 .449-.173l.98-.933.324.364q.506.592.942 1.236l-.667.287h-.004a.667.667 0 0 0 .265 1.28l.02-.001a.65.65 0 0 0 .272-.06l.787-.387-.03-.061c.29.542.539 1.11.764 1.781h-.108a8 8 0 0 1-7.992-8v-.133zM8.89 1.083c.189.523.414 1.03.64 1.45l.726-.326.061-.024a.67.67 0 0 1 .82.357l-.001-.004a.666.666 0 0 1-.332.884l-.607.273.033.055q.599.922 1.333 1.739l.96-.967a.667.667 0 0 1 1.14.47v.008a.67.67 0 0 1-.173.45l-.933.98.364.324q.592.506 1.236.941l.287-.666v-.004a.667.667 0 0 1 1.28.265l-.001.02a.65.65 0 0 1-.06.272l-.387.787-.061-.03c.542.29 1.11.538 1.781.763v-.107a8 8 0 0 0-8-7.993h-.133z"></path></svg>