<svg xmlns:xlink="http://www.w3.org/1999/xlink" xmlns="http://www.w3.org/2000/svg" fill="none" viewBox="0 0 18 18" class="size-4.5 text-red-400" width="18"  height="18" ><path fill="#AC3031" d="M3.001 3.738c.14-.16.287-.32.44-.466a12.5 12.5 0 0 1 7.166 2.687l-.026-.02a17.94 17.94 0 0 1 5.205 7.211l.042.122q-.194.316-.419.61l.012-.016c-1.14-2.746-2.824-5.064-4.931-6.909l-.022-.019a13.88 13.88 0 0 0-7.402-3.194zM1.955 5.205a12.5 12.5 0 0 1 7.532 2.942l-.019-.016a17.5 17.5 0 0 1 4.727 6.794l.04.12A7.96 7.96 0 0 1 9 16.995 8 8 0 0 1 1.976 5.162zm3.333-3.287A7.9 7.9 0 0 1 9 1.005a8 8 0 0 1 7.639 10.384l.015-.057c-1.229-2.656-2.97-4.885-5.114-6.64l-.032-.027A13.73 13.73 0 0 0 5.35 1.93l-.082-.011z"></path></svg>