<svg xmlns:xlink="http://www.w3.org/1999/xlink" xmlns="http://www.w3.org/2000/svg" fill="none" viewBox="0 0 18 18" class="size-4.5 text-[#55acee] dark:text-[#55acee]" width="20"  height="20" ><path fill="#55ACEE" d="m17.287 12.653-2.048-6.774a2.146 2.146 0 0 0-2.686-1.425l.015-.004a2.15 2.15 0 0 0-.833.478l.002-.002H7.02a2.14 2.14 0 0 0-.816-.472L6.19 4.45a2.141 2.141 0 0 0-2.666 1.413l-.005.015-2.048 6.775a2.142 2.142 0 0 0 4.094 1.257l.004-.015.756-2.504a1.512 1.512 0 0 0 2.019-1.155l.002-.01h2.06a1.514 1.514 0 0 0 1.49 1.26h.003q.28 0 .541-.096l-.01.003.755 2.504a2.143 2.143 0 1 0 4.097-1.26zM4.69 7.516h-.728v-.632h.725a.312.312 0 0 1 .001.621zm1.033 1.136h-.628V7.92a.31.31 0 1 1 .62 0zm0-2.171a.31.31 0 1 1-.62 0v-.736h.62zM6.86 7.506h-.726a.312.312 0 0 1 0-.622h.726zm5.416.065a.504.504 0 0 1 0-1.007.504.504 0 0 1 0 1.007m1.134 1.134a.504.504 0 0 1 0-1.008.504.504 0 0 1 0 1.008m0-2.267a.504.504 0 0 1 0-1.008.504.504 0 0 1 0 1.008m1.133 1.133a.504.504 0 0 1 0-1.007.504.504 0 0 1 0 1.007"></path></svg>