<svg xmlns:xlink="http://www.w3.org/1999/xlink" xmlns="http://www.w3.org/2000/svg" width="18" height="18" viewBox="0 0 18 18" class="w-6 h-[18px]"><path d="M15.75,9.75H2.25c-.414,0-.75-.336-.75-.75s.336-.75,.75-.75H15.75c.414,0,.75,.336,.75,.75s-.336,.75-.75,.75Z" fill="#FFFFFF" data-color="color-2"></path><path d="M15.75,4.5H2.25c-.414,0-.75-.336-.75-.75s.336-.75,.75-.75H15.75c.414,0,.75,.336,.75,.75s-.336,.75-.75,.75Z" fill="#FFFFFF"></path><path d="M15.75,15H2.25c-.414,0-.75-.336-.75-.75s.336-.75,.75-.75H15.75c.414,0,.75,.336,.75,.75s-.336,.75-.75,.75Z" fill="#FFFFFF"></path></svg>